P2
#image ecrite à l'aide de la fonction writepgm
4 3
255
8 2 1 15 
13 3 1 10 
140 52 5 25 
